<?xml version="1.0" encoding="UTF-8"?>
<!DOCTYPE svg PUBLIC "-//W3C//DTD SVG 1.1//EN" "http://www.w3.org/Graphics/SVG/1.1/DTD/svg11.dtd">
<svg xmlns="http://www.w3.org/2000/svg" version="1.1" width="245px" height="233px" style="shape-rendering:geometricPrecision; text-rendering:geometricPrecision; image-rendering:optimizeQuality; fill-rule:evenodd; clip-rule:evenodd" xmlns:xlink="http://www.w3.org/1999/xlink">
<g><path style="opacity:0.71" fill="#f9a87a" d="M 140.5,43.5 C 131.844,42.2986 123.178,42.2986 114.5,43.5C 114.167,43.5 113.833,43.5 113.5,43.5C 113.5,43.1667 113.5,42.8333 113.5,42.5C 121.477,41.5101 129.477,41.3435 137.5,42C 138.737,42.2321 139.737,42.7321 140.5,43.5 Z"/></g>
<g><path style="opacity:0.012" fill="#fbe2d3" d="M 177.5,63.5 C 176.833,63.5 176.167,63.5 175.5,63.5C 173.614,62.0699 171.947,60.4032 170.5,58.5C 168.14,56.1468 165.473,54.1468 162.5,52.5C 158.849,50.5024 155.182,48.5024 151.5,46.5C 148.746,45.0541 145.746,44.0541 142.5,43.5C 141.833,43.5 141.167,43.5 140.5,43.5C 139.737,42.7321 138.737,42.2321 137.5,42C 129.477,41.3435 121.477,41.5101 113.5,42.5C 138.948,36.864 160.282,43.864 177.5,63.5 Z"/></g>
<g><path style="opacity:0.969" fill="#f88e51" d="M 113.5,43.5 C 113.833,43.5 114.167,43.5 114.5,43.5C 111.992,45.554 108.992,46.554 105.5,46.5C 107.902,45.0075 110.569,44.0075 113.5,43.5 Z"/></g>
<g><path style="opacity:0.824" fill="#f9965c" d="M 142.5,43.5 C 145.746,44.0541 148.746,45.0541 151.5,46.5C 148.008,46.554 145.008,45.554 142.5,43.5 Z"/></g>
<g><path style="opacity:1" fill="#f77322" d="M 140.5,43.5 C 141.167,43.5 141.833,43.5 142.5,43.5C 145.008,45.554 148.008,46.554 151.5,46.5C 155.182,48.5024 158.849,50.5024 162.5,52.5C 162.5,53.5 162.5,54.5 162.5,55.5C 139.327,55.8308 116.327,55.4975 93.5,54.5C 94.1667,53.5 94.8333,52.5 95.5,51.5C 95.8417,50.6618 96.5084,50.3284 97.5,50.5C 100.157,50.0652 102.491,49.0652 104.5,47.5C 104.5,46.8333 104.833,46.5 105.5,46.5C 108.992,46.554 111.992,45.554 114.5,43.5C 123.178,42.2986 131.844,42.2986 140.5,43.5 Z"/></g>
<g><path style="opacity:0.949" fill="#f99457" d="M 104.5,47.5 C 102.491,49.0652 100.157,50.0652 97.5,50.5C 99.1757,48.1663 101.509,47.1663 104.5,47.5 Z"/></g>
<g><path style="opacity:0.255" fill="#fbe1d1" d="M 113.5,42.5 C 113.5,42.8333 113.5,43.1667 113.5,43.5C 110.569,44.0075 107.902,45.0075 105.5,46.5C 104.833,46.5 104.5,46.8333 104.5,47.5C 101.509,47.1663 99.1757,48.1663 97.5,50.5C 96.5084,50.3284 95.8417,50.6618 95.5,51.5C 93.2512,52.0798 91.5846,53.4131 90.5,55.5C 88.7697,56.0256 87.4363,57.0256 86.5,58.5C 84.1667,60.1667 82.1667,62.1667 80.5,64.5C 79.8333,64.8333 79.1667,65.1667 78.5,65.5C 86.9647,53.0922 98.6314,45.4255 113.5,42.5 Z"/></g>
<g><path style="opacity:1" fill="#f89251" d="M 95.5,51.5 C 94.8333,52.5 94.1667,53.5 93.5,54.5C 92.609,55.1098 91.609,55.4431 90.5,55.5C 91.5846,53.4131 93.2512,52.0798 95.5,51.5 Z"/></g>
<g><path style="opacity:1" fill="#f77b27" d="M 162.5,52.5 C 165.473,54.1468 168.14,56.1468 170.5,58.5C 170.5,59.5 170.5,60.5 170.5,61.5C 142.165,61.6666 113.831,61.5 85.5,61C 86.2524,60.3292 86.5858,59.4959 86.5,58.5C 87.4363,57.0256 88.7697,56.0256 90.5,55.5C 91.609,55.4431 92.609,55.1098 93.5,54.5C 116.327,55.4975 139.327,55.8308 162.5,55.5C 162.5,54.5 162.5,53.5 162.5,52.5 Z"/></g>
<g><path style="opacity:1" fill="#f7802b" d="M 86.5,58.5 C 86.5858,59.4959 86.2524,60.3292 85.5,61C 113.831,61.5 142.165,61.6666 170.5,61.5C 170.5,60.5 170.5,59.5 170.5,58.5C 171.947,60.4032 173.614,62.0699 175.5,63.5C 175.611,64.1174 175.944,64.6174 176.5,65C 173.322,65.6595 170.322,66.4928 167.5,67.5C 165.694,68.0241 164.028,68.6908 162.5,69.5C 161.167,69.5 159.833,69.5 158.5,69.5C 138.864,70.6302 119.198,70.7969 99.5,70C 97.6547,68.872 95.6547,68.372 93.5,68.5C 91.5,68.1667 89.5,67.8333 87.5,67.5C 85.3085,66.1314 82.9752,65.1314 80.5,64.5C 82.1667,62.1667 84.1667,60.1667 86.5,58.5 Z"/></g>
<g><path style="opacity:0.376" fill="#fae2d1" d="M 78.5,65.5 C 78.5,66.1667 78.5,66.8333 78.5,67.5C 77.8333,67.5 77.5,67.8333 77.5,68.5C 76.8333,68.8333 76.1667,69.1667 75.5,69.5C 75.7376,67.5956 76.7376,66.2623 78.5,65.5 Z"/></g>
<g><path style="opacity:0.361" fill="#fac097" d="M 80.5,64.5 C 82.9752,65.1314 85.3085,66.1314 87.5,67.5C 85.901,67.2322 84.5676,67.5655 83.5,68.5C 81.8828,67.962 80.2161,67.6287 78.5,67.5C 78.5,66.8333 78.5,66.1667 78.5,65.5C 79.1667,65.1667 79.8333,64.8333 80.5,64.5 Z"/></g>
<g><path style="opacity:0.322" fill="#fac8a3" d="M 175.5,63.5 C 176.167,63.5 176.833,63.5 177.5,63.5C 178.89,64.8993 179.89,66.5659 180.5,68.5C 180.5,69.1667 180.5,69.8333 180.5,70.5C 178.902,67.5152 176.568,66.8486 173.5,68.5C 171.735,67.5386 169.735,67.2053 167.5,67.5C 170.322,66.4928 173.322,65.6595 176.5,65C 175.944,64.6174 175.611,64.1174 175.5,63.5 Z"/></g>
<g><path style="opacity:1" fill="#f88730" d="M 93.5,68.5 C 95.6547,68.372 97.6547,68.872 99.5,70C 119.198,70.7969 138.864,70.6302 158.5,69.5C 158.5,70.1667 158.5,70.8333 158.5,71.5C 158.167,71.5 157.833,71.5 157.5,71.5C 155.368,71.5544 154.035,72.5544 153.5,74.5C 152.167,74.8333 150.833,75.1667 149.5,75.5C 135.536,76.4478 121.536,76.7811 107.5,76.5C 105.566,75.8897 103.899,74.8897 102.5,73.5C 102.027,72.0937 101.027,71.427 99.5,71.5C 97.1815,71.0075 95.1815,70.0075 93.5,68.5 Z"/></g>
<g><path style="opacity:0.486" fill="#f9b480" d="M 158.5,69.5 C 159.833,69.5 161.167,69.5 162.5,69.5C 162.5,69.8333 162.5,70.1667 162.5,70.5C 161.041,70.4326 159.708,70.7659 158.5,71.5C 158.5,70.8333 158.5,70.1667 158.5,69.5 Z"/></g>
<g><path style="opacity:0.173" fill="#fbebdf" d="M 75.5,69.5 C 75.1667,70.8333 74.8333,72.1667 74.5,73.5C 73.8333,73.8333 73.1667,74.1667 72.5,74.5C 72.7497,72.326 73.7497,70.6594 75.5,69.5 Z"/></g>
<g><path style="opacity:0.082" fill="#fae8da" d="M 162.5,70.5 C 160.819,72.0075 158.819,73.0075 156.5,73.5C 156.833,72.8333 157.167,72.1667 157.5,71.5C 157.833,71.5 158.167,71.5 158.5,71.5C 159.708,70.7659 161.041,70.4326 162.5,70.5 Z"/></g>
<g><path style="opacity:1" fill="#f9a462" d="M 77.5,68.5 C 77.4077,70.8477 76.4077,72.5144 74.5,73.5C 74.8333,72.1667 75.1667,70.8333 75.5,69.5C 76.1667,69.1667 76.8333,68.8333 77.5,68.5 Z"/></g>
<g><path style="opacity:0.761" fill="#f9ae73" d="M 99.5,71.5 C 101.027,71.427 102.027,72.0937 102.5,73.5C 100.973,73.573 99.9731,72.9063 99.5,71.5 Z"/></g>
<g><path style="opacity:0.737" fill="#fab27b" d="M 157.5,71.5 C 157.167,72.1667 156.833,72.8333 156.5,73.5C 155.391,73.5569 154.391,73.8902 153.5,74.5C 154.035,72.5544 155.368,71.5544 157.5,71.5 Z"/></g>
<g><path style="opacity:0.737" fill="#f9af75" d="M 181.5,72.5 C 182.906,72.9731 183.573,73.9731 183.5,75.5C 182.094,75.0269 181.427,74.0269 181.5,72.5 Z"/></g>
<g><path style="opacity:0.039" fill="#faeadd" d="M 180.5,68.5 C 183.786,71.4 185.786,75.0666 186.5,79.5C 185.833,78.8333 185.167,78.1667 184.5,77.5C 184.672,76.5084 184.338,75.8417 183.5,75.5C 183.573,73.9731 182.906,72.9731 181.5,72.5C 181.672,71.5084 181.338,70.8417 180.5,70.5C 180.5,69.8333 180.5,69.1667 180.5,68.5 Z"/></g>
<g><path style="opacity:1" fill="#f88c33" d="M 78.5,67.5 C 80.2161,67.6287 81.8828,67.962 83.5,68.5C 87.7146,71.9251 91.7146,75.5917 95.5,79.5C 95.5394,80.5832 95.8728,81.5832 96.5,82.5C 92.3333,82.8333 88.1667,83.1667 84,83.5C 79.4428,83.4915 75.2762,82.8248 71.5,81.5C 71.5,80.8333 71.5,80.1667 71.5,79.5C 73.2451,77.9674 74.2451,75.9674 74.5,73.5C 76.4077,72.5144 77.4077,70.8477 77.5,68.5C 77.5,67.8333 77.8333,67.5 78.5,67.5 Z"/></g>
<g><path style="opacity:1" fill="#f89036" d="M 149.5,75.5 C 144.77,80.7127 139.77,85.7127 134.5,90.5C 131.079,92.1466 127.413,92.8132 123.5,92.5C 118.527,86.8604 113.194,81.5271 107.5,76.5C 121.536,76.7811 135.536,76.4478 149.5,75.5 Z"/></g>
<g><path style="opacity:0.859" fill="#f9ad6e" d="M 74.5,73.5 C 74.2451,75.9674 73.2451,77.9674 71.5,79.5C 72.038,77.8828 72.3713,76.2161 72.5,74.5C 73.1667,74.1667 73.8333,73.8333 74.5,73.5 Z"/></g>
<g><path style="opacity:0.976" fill="#f9ad6d" d="M 184.5,77.5 C 185.167,78.1667 185.833,78.8333 186.5,79.5C 186.629,81.2161 186.962,82.8828 187.5,84.5C 186.833,84.1667 186.167,83.8333 185.5,83.5C 184.85,81.5648 184.517,79.5648 184.5,77.5 Z"/></g>
<g><path style="opacity:1" fill="#f89337" d="M 95.5,79.5 C 97.543,80.5794 98.8763,82.246 99.5,84.5C 100.63,86.3146 101.296,88.3146 101.5,90.5C 90.8126,90.832 80.1459,90.4987 69.5,89.5C 70.3742,87.2534 70.7076,84.9201 70.5,82.5C 70.5,81.8333 70.8333,81.5 71.5,81.5C 75.2762,82.8248 79.4428,83.4915 84,83.5C 88.1667,83.1667 92.3333,82.8333 96.5,82.5C 95.8728,81.5832 95.5394,80.5832 95.5,79.5 Z"/></g>
<g><path style="opacity:0.941" fill="#f9a862" d="M 162.5,78.5 C 161.243,81.4274 159.243,83.7607 156.5,85.5C 157.757,82.5726 159.757,80.2393 162.5,78.5 Z"/></g>
<g><path style="opacity:1" fill="#f89035" d="M 180.5,70.5 C 181.338,70.8417 181.672,71.5084 181.5,72.5C 181.427,74.0269 182.094,75.0269 183.5,75.5C 184.338,75.8417 184.672,76.5084 184.5,77.5C 184.517,79.5648 184.85,81.5648 185.5,83.5C 186.219,85.7638 186.552,88.0971 186.5,90.5C 176.167,90.5 165.833,90.5 155.5,90.5C 155.629,88.7839 155.962,87.1172 156.5,85.5C 159.243,83.7607 161.243,81.4274 162.5,78.5C 165.543,74.4564 169.209,71.1231 173.5,68.5C 176.568,66.8486 178.902,67.5152 180.5,70.5 Z"/></g>
<g><path style="opacity:0.243" fill="#fbe8d6" d="M 87.5,67.5 C 89.5,67.8333 91.5,68.1667 93.5,68.5C 95.1815,70.0075 97.1815,71.0075 99.5,71.5C 99.9731,72.9063 100.973,73.573 102.5,73.5C 103.899,74.8897 105.566,75.8897 107.5,76.5C 113.194,81.5271 118.527,86.8604 123.5,92.5C 124.13,94.7496 125.13,96.7496 126.5,98.5C 123.54,105.963 121.206,113.63 119.5,121.5C 119.565,121.938 119.399,122.272 119,122.5C 117.112,118.004 115.945,113.337 115.5,108.5C 116.558,110.808 117.724,113.142 119,115.5C 120.274,111.01 121.941,106.677 124,102.5C 124.667,100.833 124.667,99.1667 124,97.5C 115.716,84.5568 104.382,75.2234 90,69.5C 89.5,69.8333 89,70.1667 88.5,70.5C 98.8121,79.133 106.812,89.4663 112.5,101.5C 111.833,101.167 111.167,100.833 110.5,100.5C 110.672,99.5084 110.338,98.8417 109.5,98.5C 109.573,96.9731 108.906,95.9731 107.5,95.5C 106.925,93.5887 105.925,91.922 104.5,90.5C 104.573,88.9731 103.906,87.9731 102.5,87.5C 101.833,86.1667 100.833,85.1667 99.5,84.5C 98.8763,82.246 97.543,80.5794 95.5,79.5C 91.7146,75.5917 87.7146,71.9251 83.5,68.5C 84.5676,67.5655 85.901,67.2322 87.5,67.5 Z"/></g>
<g><path style="opacity:0.298" fill="#fbe5d3" d="M 167.5,67.5 C 169.735,67.2053 171.735,67.5386 173.5,68.5C 169.209,71.1231 165.543,74.4564 162.5,78.5C 159.757,80.2393 157.757,82.5726 156.5,85.5C 154.065,87.271 152.398,89.6044 151.5,92.5C 150.833,92.5 150.167,92.5 149.5,92.5C 154.844,83.3155 161.844,75.4822 170.5,69C 167.888,69.3594 165.221,69.8594 162.5,70.5C 162.5,70.1667 162.5,69.8333 162.5,69.5C 164.028,68.6908 165.694,68.0241 167.5,67.5 Z"/></g>
<g><path style="opacity:0.8" fill="#fabe86" d="M 102.5,87.5 C 103.906,87.9731 104.573,88.9731 104.5,90.5C 103.094,90.0269 102.427,89.0269 102.5,87.5 Z"/></g>
<g><path style="opacity:1" fill="#f8993a" d="M 185.5,83.5 C 186.167,83.8333 186.833,84.1667 187.5,84.5C 187.5,85.1667 187.5,85.8333 187.5,86.5C 188.114,90.1352 188.448,93.8019 188.5,97.5C 175.833,97.5 163.167,97.5 150.5,97.5C 150.366,95.7085 150.699,94.0418 151.5,92.5C 152.398,89.6044 154.065,87.271 156.5,85.5C 155.962,87.1172 155.629,88.7839 155.5,90.5C 165.833,90.5 176.167,90.5 186.5,90.5C 186.552,88.0971 186.219,85.7638 185.5,83.5 Z"/></g>
<g><path style="opacity:1" fill="#f89f45" d="M 134.5,90.5 C 132.766,94.2996 130.766,97.9663 128.5,101.5C 127.833,100.5 127.167,99.5 126.5,98.5C 125.13,96.7496 124.13,94.7496 123.5,92.5C 127.413,92.8132 131.079,92.1466 134.5,90.5 Z"/></g>
<g><path style="opacity:0.196" fill="#fbeee1" d="M 149.5,92.5 C 149.167,93.8333 148.833,95.1667 148.5,96.5C 147.833,96.8333 147.167,97.1667 146.5,97.5C 146.75,95.326 147.75,93.6594 149.5,92.5 Z"/></g>
<g><path style="opacity:1" fill="#f89f3e" d="M 149.5,92.5 C 150.167,92.5 150.833,92.5 151.5,92.5C 150.699,94.0418 150.366,95.7085 150.5,97.5C 163.167,97.5 175.833,97.5 188.5,97.5C 188.5,99.8333 188.5,102.167 188.5,104.5C 174.127,105.149 160.127,104.482 146.5,102.5C 147.363,100.579 148.029,98.5786 148.5,96.5C 148.833,95.1667 149.167,93.8333 149.5,92.5 Z"/></g>
<g><path style="opacity:1" fill="#f89d3c" d="M 70.5,82.5 C 70.7076,84.9201 70.3742,87.2534 69.5,89.5C 80.1459,90.4987 90.8126,90.832 101.5,90.5C 101.296,88.3146 100.63,86.3146 99.5,84.5C 100.833,85.1667 101.833,86.1667 102.5,87.5C 102.427,89.0269 103.094,90.0269 104.5,90.5C 105.925,91.922 106.925,93.5887 107.5,95.5C 107.427,97.0269 108.094,98.0269 109.5,98.5C 109.5,100.167 109.5,101.833 109.5,103.5C 95.5,103.5 81.5,103.5 67.5,103.5C 67.4372,98.7971 67.7705,94.1304 68.5,89.5C 68.7215,86.9327 69.3882,84.5994 70.5,82.5 Z"/></g>
<g><path style="opacity:0.722" fill="#f9bf83" d="M 107.5,95.5 C 108.906,95.9731 109.573,96.9731 109.5,98.5C 108.094,98.0269 107.427,97.0269 107.5,95.5 Z"/></g>
<g><path style="opacity:0.861" fill="#f9bd79" d="M 68.5,89.5 C 67.7705,94.1304 67.4372,98.7971 67.5,103.5C 67.5,105.833 67.5,108.167 67.5,110.5C 67.8333,113.167 68.1667,115.833 68.5,118.5C 67.7784,118.082 67.2784,117.416 67,116.5C 66.3333,108.167 66.3333,99.8333 67,91.5C 67.2784,90.5842 67.7784,89.9175 68.5,89.5 Z"/></g>
<g><path style="opacity:0.999" fill="#f9b263" d="M 187.5,86.5 C 189.011,88.4758 189.844,90.8091 190,93.5C 190.691,101.195 190.525,108.861 189.5,116.5C 189.167,116.5 188.833,116.5 188.5,116.5C 188.5,114.833 188.5,113.167 188.5,111.5C 188.5,109.167 188.5,106.833 188.5,104.5C 188.5,102.167 188.5,99.8333 188.5,97.5C 188.448,93.8019 188.114,90.1352 187.5,86.5 Z"/></g>
<g><path style="opacity:0.906" fill="#f9b973" d="M 148.5,96.5 C 148.029,98.5786 147.363,100.579 146.5,102.5C 146.167,102.5 145.833,102.5 145.5,102.5C 146.038,100.883 146.371,99.2161 146.5,97.5C 147.167,97.1667 147.833,96.8333 148.5,96.5 Z"/></g>
<g><path style="opacity:1" fill="#f9a641" d="M 109.5,98.5 C 110.338,98.8417 110.672,99.5084 110.5,100.5C 110.755,102.967 111.755,104.967 113.5,106.5C 113.5,106.833 113.5,107.167 113.5,107.5C 114.422,111.112 115.089,114.779 115.5,118.5C 111.382,118.47 107.382,117.803 103.5,116.5C 102.391,116.443 101.391,116.11 100.5,115.5C 98.52,113.549 96.1867,112.049 93.5,111C 92.2068,110.51 90.8734,110.343 89.5,110.5C 89.3893,109.883 89.056,109.383 88.5,109C 87.1667,108.833 85.8333,108.667 84.5,108.5C 81.2899,110.043 77.7899,111.043 74,111.5C 71.7446,111.434 69.578,111.101 67.5,110.5C 67.5,108.167 67.5,105.833 67.5,103.5C 81.5,103.5 95.5,103.5 109.5,103.5C 109.5,101.833 109.5,100.167 109.5,98.5 Z"/></g>
<g><path style="opacity:0.043" fill="#fbefe1" d="M 112.5,101.5 C 114.241,103.395 115.241,105.728 115.5,108.5C 114.833,108.167 114.167,107.833 113.5,107.5C 113.5,107.167 113.5,106.833 113.5,106.5C 112.962,104.883 112.629,103.216 112.5,101.5 Z"/></g>
<g><path style="opacity:1" fill="#f9a540" d="M 145.5,102.5 C 145.833,102.5 146.167,102.5 146.5,102.5C 160.127,104.482 174.127,105.149 188.5,104.5C 188.5,106.833 188.5,109.167 188.5,111.5C 185.833,111.5 183.167,111.5 180.5,111.5C 180.5,110.5 180.5,109.5 180.5,108.5C 176.988,107.945 173.988,108.612 171.5,110.5C 170.5,110.5 169.5,110.5 168.5,110.5C 160.195,111.773 151.861,111.773 143.5,110.5C 144.127,109.583 144.461,108.583 144.5,107.5C 144.629,105.784 144.962,104.117 145.5,102.5 Z"/></g>
<g><path style="opacity:0.769" fill="#fac58a" d="M 110.5,100.5 C 111.167,100.833 111.833,101.167 112.5,101.5C 112.629,103.216 112.962,104.883 113.5,106.5C 111.755,104.967 110.755,102.967 110.5,100.5 Z"/></g>
<g><path style="opacity:0.149" fill="#fbefe1" d="M 146.5,97.5 C 146.371,99.2161 146.038,100.883 145.5,102.5C 143.755,104.033 142.755,106.033 142.5,108.5C 141.833,109.167 141.167,109.833 140.5,110.5C 141.369,105.522 143.369,101.189 146.5,97.5 Z"/></g>
<g><path style="opacity:0.792" fill="#fac382" d="M 145.5,102.5 C 144.962,104.117 144.629,105.784 144.5,107.5C 143.833,107.833 143.167,108.167 142.5,108.5C 142.755,106.033 143.755,104.033 145.5,102.5 Z"/></g>
<g><path style="opacity:0.898" fill="#fabf76" d="M 126.5,98.5 C 127.167,99.5 127.833,100.5 128.5,101.5C 125.548,108.641 123.215,115.974 121.5,123.5C 121.167,123.5 120.833,123.5 120.5,123.5C 120.672,122.508 120.338,121.842 119.5,121.5C 121.206,113.63 123.54,105.963 126.5,98.5 Z"/></g>
<g><path style="opacity:0.319" fill="#fad9b1" d="M 89.5,110.5 C 89.5,110.833 89.5,111.167 89.5,111.5C 87.901,111.232 86.5676,111.566 85.5,112.5C 82.6846,112.217 82.1846,111.217 84,109.5C 85.7659,110.233 87.5992,110.567 89.5,110.5 Z"/></g>
<g><path style="opacity:0.304" fill="#fad6aa" d="M 174.5,112.5 C 172.833,111.167 171.167,111.167 169.5,112.5C 168.833,112.5 168.167,112.5 167.5,112.5C 167.833,111.833 168.167,111.167 168.5,110.5C 169.5,110.5 170.5,110.5 171.5,110.5C 173.738,109.463 176.071,109.297 178.5,110C 177.529,111.481 176.196,112.315 174.5,112.5 Z"/></g>
<g><path style="opacity:0.843" fill="#fac684" d="M 89.5,111.5 C 89.5,111.167 89.5,110.833 89.5,110.5C 90.8734,110.343 92.2068,110.51 93.5,111C 96.1867,112.049 98.52,113.549 100.5,115.5C 98.8828,114.962 97.2161,114.629 95.5,114.5C 93.7496,113.13 91.7496,112.13 89.5,111.5 Z"/></g>
<g><path style="opacity:1" fill="#f9ae49" d="M 144.5,107.5 C 144.461,108.583 144.127,109.583 143.5,110.5C 151.861,111.773 160.195,111.773 168.5,110.5C 168.167,111.167 167.833,111.833 167.5,112.5C 166.209,112.263 165.209,112.596 164.5,113.5C 162.302,113.12 160.635,113.787 159.5,115.5C 156.91,116.128 154.577,117.295 152.5,119C 147.998,122.336 143.998,126.169 140.5,130.5C 138.744,129.448 138.077,127.781 138.5,125.5C 138.993,123.194 139.326,120.861 139.5,118.5C 140.693,118.03 141.36,117.03 141.5,115.5C 141.997,113.182 142.33,110.848 142.5,108.5C 143.167,108.167 143.833,107.833 144.5,107.5 Z"/></g>
<g><path style="opacity:0.118" fill="#fbecda" d="M 167.5,112.5 C 168.167,112.5 168.833,112.5 169.5,112.5C 168.22,113.931 166.553,114.598 164.5,114.5C 164.5,114.167 164.5,113.833 164.5,113.5C 165.209,112.596 166.209,112.263 167.5,112.5 Z"/></g>
<g><path style="opacity:0.494" fill="#facf97" d="M 164.5,113.5 C 164.5,113.833 164.5,114.167 164.5,114.5C 162.784,114.629 161.117,114.962 159.5,115.5C 160.635,113.787 162.302,113.12 164.5,113.5 Z"/></g>
<g><path style="opacity:1" fill="#f9b14b" d="M 89.5,110.5 C 87.5992,110.567 85.7659,110.233 84,109.5C 82.1846,111.217 82.6846,112.217 85.5,112.5C 88.5,115.167 91.5,117.833 94.5,120.5C 94.7329,122.062 95.3995,123.395 96.5,124.5C 88.3501,125.493 80.0168,125.826 71.5,125.5C 69.4642,123.794 68.4642,121.461 68.5,118.5C 68.1667,115.833 67.8333,113.167 67.5,110.5C 69.578,111.101 71.7446,111.434 74,111.5C 77.7899,111.043 81.2899,110.043 84.5,108.5C 85.8333,108.667 87.1667,108.833 88.5,109C 89.056,109.383 89.3893,109.883 89.5,110.5 Z"/></g>
<g><path style="opacity:0.153" fill="#fbf1e1" d="M 85.5,112.5 C 86.5676,111.566 87.901,111.232 89.5,111.5C 91.7496,112.13 93.7496,113.13 95.5,114.5C 93.4884,113.986 91.4884,113.82 89.5,114C 103.311,124.971 112.978,138.804 118.5,155.5C 117.833,155.167 117.167,154.833 116.5,154.5C 114.669,146.504 111.003,139.504 105.5,133.5C 104.876,131.246 103.543,129.579 101.5,128.5C 99.9059,125.236 97.5725,122.569 94.5,120.5C 91.5,117.833 88.5,115.167 85.5,112.5 Z"/></g>
<g><path style="opacity:1" fill="#f9ba5f" d="M 113.5,107.5 C 114.167,107.833 114.833,108.167 115.5,108.5C 115.945,113.337 117.112,118.004 119,122.5C 119.399,122.272 119.565,121.938 119.5,121.5C 120.338,121.842 120.672,122.508 120.5,123.5C 120.802,126.059 120.468,128.393 119.5,130.5C 114.463,125.461 109.129,120.794 103.5,116.5C 107.382,117.803 111.382,118.47 115.5,118.5C 115.089,114.779 114.422,111.112 113.5,107.5 Z"/></g>
<g><path style="opacity:1" fill="#fabf72" d="M 142.5,108.5 C 142.33,110.848 141.997,113.182 141.5,115.5C 141.36,117.03 140.693,118.03 139.5,118.5C 139.833,115.833 140.167,113.167 140.5,110.5C 141.167,109.833 141.833,109.167 142.5,108.5 Z"/></g>
<g><path style="opacity:1" fill="#f9b14a" d="M 188.5,111.5 C 188.5,113.167 188.5,114.833 188.5,116.5C 187.85,118.435 187.517,120.435 187.5,122.5C 187.5,122.833 187.5,123.167 187.5,123.5C 186.167,123.5 185.5,124.167 185.5,125.5C 178.5,125.5 171.5,125.5 164.5,125.5C 164.831,123.678 165.498,122.011 166.5,120.5C 168.812,117.521 171.479,114.854 174.5,112.5C 176.196,112.315 177.529,111.481 178.5,110C 176.071,109.297 173.738,109.463 171.5,110.5C 173.988,108.612 176.988,107.945 180.5,108.5C 180.5,109.5 180.5,110.5 180.5,111.5C 183.167,111.5 185.833,111.5 188.5,111.5 Z"/></g>
<g><path style="opacity:0.263" fill="#fbe5cd" d="M 156.5,73.5 C 137.402,85.9934 126.069,103.66 122.5,126.5C 123.187,128.177 123.854,129.844 124.5,131.5C 121.828,129.609 120.828,126.942 121.5,123.5C 123.215,115.974 125.548,108.641 128.5,101.5C 130.766,97.9663 132.766,94.2996 134.5,90.5C 139.77,85.7127 144.77,80.7127 149.5,75.5C 150.833,75.1667 152.167,74.8333 153.5,74.5C 154.391,73.8902 155.391,73.5569 156.5,73.5 Z"/></g>
<g><path style="opacity:0.141" fill="#fbedda" d="M 169.5,112.5 C 171.167,111.167 172.833,111.167 174.5,112.5C 171.479,114.854 168.812,117.521 166.5,120.5C 164.046,122.103 162.046,124.103 160.5,126.5C 154.952,131.052 150.952,136.719 148.5,143.5C 147.833,143.833 147.167,144.167 146.5,144.5C 152.373,132.118 160.706,121.618 171.5,113C 170.906,112.536 170.239,112.369 169.5,112.5 Z"/></g>
<g><path style="opacity:0.22" fill="#faf0e1" d="M 140.5,110.5 C 140.167,113.167 139.833,115.833 139.5,118.5C 138.833,119.5 138.167,120.5 137.5,121.5C 137.517,117.466 138.517,113.799 140.5,110.5 Z"/></g>
<g><path style="opacity:0.902" fill="#facb84" d="M 94.5,120.5 C 97.5725,122.569 99.9059,125.236 101.5,128.5C 99.8333,127.167 98.1667,125.833 96.5,124.5C 95.3995,123.395 94.7329,122.062 94.5,120.5 Z"/></g>
<g><path style="opacity:0.404" fill="#fad7a5" d="M 188.5,116.5 C 188.833,116.5 189.167,116.5 189.5,116.5C 189.741,118.898 189.074,120.898 187.5,122.5C 187.517,120.435 187.85,118.435 188.5,116.5 Z"/></g>
<g><path style="opacity:0.553" fill="#fad8a5" d="M 139.5,118.5 C 139.326,120.861 138.993,123.194 138.5,125.5C 138.167,125.5 137.833,125.5 137.5,125.5C 137.5,124.167 137.5,122.833 137.5,121.5C 138.167,120.5 138.833,119.5 139.5,118.5 Z"/></g>
<g><path style="opacity:0.239" fill="#fbead1" d="M 164.5,114.5 C 153.397,119.929 144.064,127.596 136.5,137.5C 137.063,134.705 138.396,132.372 140.5,130.5C 143.998,126.169 147.998,122.336 152.5,119C 154.577,117.295 156.91,116.128 159.5,115.5C 161.117,114.962 162.784,114.629 164.5,114.5 Z"/></g>
<g><path style="opacity:1" fill="#f9b84e" d="M 166.5,120.5 C 165.498,122.011 164.831,123.678 164.5,125.5C 171.5,125.5 178.5,125.5 185.5,125.5C 185.167,126.833 184.833,128.167 184.5,129.5C 184.5,129.833 184.5,130.167 184.5,130.5C 183.5,130.833 182.833,131.5 182.5,132.5C 174.197,131.82 165.864,131.654 157.5,132C 158.758,130.259 159.758,128.426 160.5,126.5C 162.046,124.103 164.046,122.103 166.5,120.5 Z"/></g>
<g><path style="opacity:1" fill="#f9b84d" d="M 96.5,124.5 C 98.1667,125.833 99.8333,127.167 101.5,128.5C 101.539,129.583 101.873,130.583 102.5,131.5C 100.667,131.833 98.8333,132.167 97,132.5C 89.5456,132.006 82.0456,132.006 74.5,132.5C 72.1663,130.824 71.1663,128.491 71.5,125.5C 80.0168,125.826 88.3501,125.493 96.5,124.5 Z"/></g>
<g><path style="opacity:0.612" fill="#facf8c" d="M 187.5,123.5 C 187.088,125.887 186.088,127.887 184.5,129.5C 184.833,128.167 185.167,126.833 185.5,125.5C 185.5,124.167 186.167,123.5 187.5,123.5 Z"/></g>
<g><path style="opacity:0.098" fill="#fbf1e1" d="M 137.5,121.5 C 137.5,122.833 137.5,124.167 137.5,125.5C 137.66,127.199 137.494,128.866 137,130.5C 135.366,132.837 133.533,134.837 131.5,136.5C 132.723,133.726 134.223,131.059 136,128.5C 136.186,125.964 136.686,123.631 137.5,121.5 Z"/></g>
<g><path style="opacity:0.063" fill="#fbf0e3" d="M 186.5,79.5 C 188.129,81.8577 189.295,84.5243 190,87.5C 190.924,93.172 191.757,98.8387 192.5,104.5C 192.356,115.767 189.356,126.1 183.5,135.5C 183.629,133.784 183.962,132.117 184.5,130.5C 184.5,130.167 184.5,129.833 184.5,129.5C 186.088,127.887 187.088,125.887 187.5,123.5C 187.5,123.167 187.5,122.833 187.5,122.5C 189.074,120.898 189.741,118.898 189.5,116.5C 190.525,108.861 190.691,101.195 190,93.5C 189.844,90.8091 189.011,88.4758 187.5,86.5C 187.5,85.8333 187.5,85.1667 187.5,84.5C 186.962,82.8828 186.629,81.2161 186.5,79.5 Z"/></g>
<g><path style="opacity:0.945" fill="#fad17d" d="M 120.5,123.5 C 120.833,123.5 121.167,123.5 121.5,123.5C 120.828,126.942 121.828,129.609 124.5,131.5C 124.427,133.027 125.094,134.027 126.5,134.5C 126.962,136.757 127.962,138.757 129.5,140.5C 131.111,139.68 131.778,138.346 131.5,136.5C 133.533,134.837 135.366,132.837 137,130.5C 137.494,128.866 137.66,127.199 137.5,125.5C 137.833,125.5 138.167,125.5 138.5,125.5C 138.077,127.781 138.744,129.448 140.5,130.5C 138.396,132.372 137.063,134.705 136.5,137.5C 133.035,140.406 130.535,144.073 129,148.5C 126.369,153.888 124.869,159.555 124.5,165.5C 123.5,165.5 122.5,165.5 121.5,165.5C 122.051,162.193 122.384,158.86 122.5,155.5C 125.385,152.233 127.385,148.4 128.5,144C 126.078,139.085 123.078,134.585 119.5,130.5C 120.468,128.393 120.802,126.059 120.5,123.5 Z"/></g>
<g><path style="opacity:0.184" fill="#fbf3e4" d="M 124.5,131.5 C 125.906,131.973 126.573,132.973 126.5,134.5C 125.094,134.027 124.427,133.027 124.5,131.5 Z"/></g>
<g><path style="opacity:1" fill="#f9c35a" d="M 160.5,126.5 C 159.758,128.426 158.758,130.259 157.5,132C 165.864,131.654 174.197,131.82 182.5,132.5C 180.029,138.972 176.029,144.306 170.5,148.5C 167.5,148.5 164.5,148.5 161.5,148.5C 161.629,146.784 161.962,145.117 162.5,143.5C 163.779,140.888 165.445,138.555 167.5,136.5C 170.632,135.947 170.966,134.947 168.5,133.5C 166.578,133.801 164.912,134.467 163.5,135.5C 157.612,138.715 152.612,143.049 148.5,148.5C 147.506,147.001 147.506,145.334 148.5,143.5C 150.952,136.719 154.952,131.052 160.5,126.5 Z"/></g>
<g><path style="opacity:0.353" fill="#fadfae" d="M 167.5,136.5 C 166.432,135.566 165.099,135.232 163.5,135.5C 164.912,134.467 166.578,133.801 168.5,133.5C 170.966,134.947 170.632,135.947 167.5,136.5 Z"/></g>
<g><path style="opacity:0.055" fill="#fbf0dd" d="M 95.5,114.5 C 97.2161,114.629 98.8828,114.962 100.5,115.5C 101.391,116.11 102.391,116.443 103.5,116.5C 109.129,120.794 114.463,125.461 119.5,130.5C 123.078,134.585 126.078,139.085 128.5,144C 127.385,148.4 125.385,152.233 122.5,155.5C 123.538,151.752 124.871,148.085 126.5,144.5C 119.426,131.092 109.093,121.092 95.5,114.5 Z"/></g>
<g><path style="opacity:0.082" fill="#fbeed5" d="M 126.5,134.5 C 127.712,135.23 128.712,136.23 129.5,137.5C 130.183,137.137 130.85,136.804 131.5,136.5C 131.778,138.346 131.111,139.68 129.5,140.5C 127.962,138.757 126.962,136.757 126.5,134.5 Z"/></g>
<g><path style="opacity:1" fill="#f9c459" d="M 101.5,128.5 C 103.543,129.579 104.876,131.246 105.5,133.5C 105.877,135.258 106.544,136.925 107.5,138.5C 107,138.833 106.5,139.167 106,139.5C 103.756,137.816 101.256,136.816 98.5,136.5C 95.9649,135.651 93.4649,134.651 91,133.5C 90.5,133.833 90,134.167 89.5,134.5C 93.5321,137.59 96.8654,141.257 99.5,145.5C 99.5,145.833 99.5,146.167 99.5,146.5C 94.8499,145.28 90.1833,145.28 85.5,146.5C 87.2779,147.726 88.2779,149.393 88.5,151.5C 82.1256,146.415 77.4589,140.082 74.5,132.5C 82.0456,132.006 89.5456,132.006 97,132.5C 98.8333,132.167 100.667,131.833 102.5,131.5C 101.873,130.583 101.539,129.583 101.5,128.5 Z"/></g>
<g><path style="opacity:1" fill="#facd6c" d="M 105.5,133.5 C 111.003,139.504 114.669,146.504 116.5,154.5C 117.573,156.653 117.573,158.653 116.5,160.5C 114.861,152.215 110.528,145.882 103.5,141.5C 102.027,139.605 100.36,137.939 98.5,136.5C 101.256,136.816 103.756,137.816 106,139.5C 106.5,139.167 107,138.833 107.5,138.5C 106.544,136.925 105.877,135.258 105.5,133.5 Z"/></g>
<g><path style="opacity:0.2" fill="#fbecd8" d="M 72.5,74.5 C 72.3713,76.2161 72.038,77.8828 71.5,79.5C 71.5,80.1667 71.5,80.8333 71.5,81.5C 70.8333,81.5 70.5,81.8333 70.5,82.5C 69.3882,84.5994 68.7215,86.9327 68.5,89.5C 67.7784,89.9175 67.2784,90.5842 67,91.5C 66.3333,99.8333 66.3333,108.167 67,116.5C 67.2784,117.416 67.7784,118.082 68.5,118.5C 68.4642,121.461 69.4642,123.794 71.5,125.5C 71.1663,128.491 72.1663,130.824 74.5,132.5C 77.4589,140.082 82.1256,146.415 88.5,151.5C 88.8333,151.5 89.1667,151.5 89.5,151.5C 90.8333,153.167 92.1667,154.833 93.5,156.5C 74.7575,144.03 65.0908,126.363 64.5,103.5C 64.5415,92.989 67.2082,83.3224 72.5,74.5 Z"/></g>
<g><path style="opacity:0.251" fill="#fbeed3" d="M 163.5,135.5 C 165.099,135.232 166.432,135.566 167.5,136.5C 165.445,138.555 163.779,140.888 162.5,143.5C 161.167,144.5 159.833,145.5 158.5,146.5C 159.919,143.9 161.585,141.4 163.5,139C 162.833,138.333 162.167,138.333 161.5,139C 156.262,142.736 151.929,147.236 148.5,152.5C 148.5,151.167 148.5,149.833 148.5,148.5C 152.612,143.049 157.612,138.715 163.5,135.5 Z"/></g>
<g><path style="opacity:1" fill="#fad067" d="M 162.5,143.5 C 161.962,145.117 161.629,146.784 161.5,148.5C 164.5,148.5 167.5,148.5 170.5,148.5C 165.583,152.969 160.249,156.969 154.5,160.5C 154.167,160 153.833,159.5 153.5,159C 155.875,155.122 157.541,150.956 158.5,146.5C 159.833,145.5 161.167,144.5 162.5,143.5 Z"/></g>
<g><path style="opacity:1" fill="#facb58" d="M 99.5,146.5 C 100.989,148.645 101.989,150.978 102.5,153.5C 97.8986,153.945 93.5653,153.278 89.5,151.5C 89.1667,151.5 88.8333,151.5 88.5,151.5C 88.2779,149.393 87.2779,147.726 85.5,146.5C 90.1833,145.28 94.8499,145.28 99.5,146.5 Z"/></g>
<g><path style="opacity:0.282" fill="#fbefd4" d="M 103.5,141.5 C 110.528,145.882 114.861,152.215 116.5,160.5C 116.5,162.167 116.5,163.833 116.5,165.5C 114.28,156.395 109.946,148.395 103.5,141.5 Z"/></g>
<g><path style="opacity:0.149" fill="#fbf3e2" d="M 146.5,144.5 C 144.594,148.986 143.26,153.653 142.5,158.5C 141.833,158.833 141.167,159.167 140.5,159.5C 141.343,153.957 143.343,148.957 146.5,144.5 Z"/></g>
<g><path style="opacity:0.067" fill="#fbf0d7" d="M 98.5,136.5 C 100.36,137.939 102.027,139.605 103.5,141.5C 101.322,140.071 98.9889,139.237 96.5,139C 103.783,145.552 107.45,153.552 107.5,163C 105.465,163.599 103.799,163.099 102.5,161.5C 102.5,161.167 102.5,160.833 102.5,160.5C 103.978,160.762 105.311,160.429 106.5,159.5C 105.642,153.979 103.309,149.312 99.5,145.5C 96.8654,141.257 93.5321,137.59 89.5,134.5C 90,134.167 90.5,133.833 91,133.5C 93.4649,134.651 95.9649,135.651 98.5,136.5 Z"/></g>
<g><path style="opacity:0.035" fill="#fbf3e0" d="M 136.5,137.5 C 131.513,146.477 127.513,155.81 124.5,165.5C 124.869,159.555 126.369,153.888 129,148.5C 130.535,144.073 133.035,140.406 136.5,137.5 Z"/></g>
<g><path style="opacity:1" fill="#fad983" d="M 148.5,143.5 C 147.506,145.334 147.506,147.001 148.5,148.5C 148.5,149.833 148.5,151.167 148.5,152.5C 147.542,152.953 146.708,153.619 146,154.5C 145.151,157.521 144.317,160.521 143.5,163.5C 142.503,163.53 141.836,163.03 141.5,162C 141.989,160.862 142.322,159.695 142.5,158.5C 143.26,153.653 144.594,148.986 146.5,144.5C 147.167,144.167 147.833,143.833 148.5,143.5 Z"/></g>
<g><path style="opacity:0.239" fill="#fbeed2" d="M 184.5,130.5 C 183.962,132.117 183.629,133.784 183.5,135.5C 177.273,146.892 168.273,155.392 156.5,161C 154.359,161.884 152.693,161.384 151.5,159.5C 153.085,154.658 155.418,150.325 158.5,146.5C 157.541,150.956 155.875,155.122 153.5,159C 153.833,159.5 154.167,160 154.5,160.5C 160.249,156.969 165.583,152.969 170.5,148.5C 176.029,144.306 180.029,138.972 182.5,132.5C 182.833,131.5 183.5,130.833 184.5,130.5 Z"/></g>
<g><path style="opacity:1" fill="#fad36a" d="M 99.5,145.5 C 103.309,149.312 105.642,153.979 106.5,159.5C 105.311,160.429 103.978,160.762 102.5,160.5C 101.292,159.766 99.9587,159.433 98.5,159.5C 97.5994,157.273 95.9328,156.273 93.5,156.5C 92.1667,154.833 90.8333,153.167 89.5,151.5C 93.5653,153.278 97.8986,153.945 102.5,153.5C 101.989,150.978 100.989,148.645 99.5,146.5C 99.5,146.167 99.5,145.833 99.5,145.5 Z"/></g>
<g><path style="opacity:0.133" fill="#fbf3dc" d="M 93.5,156.5 C 95.9328,156.273 97.5994,157.273 98.5,159.5C 96.326,159.25 94.6594,158.25 93.5,156.5 Z"/></g>
<g><path style="opacity:0.118" fill="#fbf5e4" d="M 98.5,159.5 C 99.9587,159.433 101.292,159.766 102.5,160.5C 102.5,160.833 102.5,161.167 102.5,161.5C 100.847,161.34 99.5137,160.674 98.5,159.5 Z"/></g>
<g><path style="opacity:0.051" fill="#fbf5e4" d="M 118.5,155.5 C 119.29,156.609 119.79,157.942 120,159.5C 120.934,158.142 121.768,156.808 122.5,155.5C 122.384,158.86 122.051,162.193 121.5,165.5C 122.5,165.5 123.5,165.5 124.5,165.5C 124.53,166.497 124.03,167.164 123,167.5C 120.654,167.01 118.487,166.343 116.5,165.5C 117.5,165.5 118.5,165.5 119.5,165.5C 118.949,162.193 118.616,158.86 118.5,155.5 Z"/></g>
<g><path style="opacity:0.833" fill="#fae295" d="M 116.5,154.5 C 117.167,154.833 117.833,155.167 118.5,155.5C 118.616,158.86 118.949,162.193 119.5,165.5C 118.5,165.5 117.5,165.5 116.5,165.5C 116.5,163.833 116.5,162.167 116.5,160.5C 117.573,158.653 117.573,156.653 116.5,154.5 Z"/></g>
<g><path style="opacity:0.043" fill="#fbf4e2" d="M 148.5,152.5 C 147.307,156.911 145.807,161.244 144,165.5C 142.667,166.833 141.333,166.833 140,165.5C 139.22,163.613 139.387,161.946 140.5,160.5C 140.5,161.833 140.5,163.167 140.5,164.5C 141.791,164.737 142.791,164.404 143.5,163.5C 144.317,160.521 145.151,157.521 146,154.5C 146.708,153.619 147.542,152.953 148.5,152.5 Z"/></g>
<g><path style="opacity:0.6" fill="#fae8af" d="M 142.5,158.5 C 142.322,159.695 141.989,160.862 141.5,162C 141.836,163.03 142.503,163.53 143.5,163.5C 142.791,164.404 141.791,164.737 140.5,164.5C 140.5,163.167 140.5,161.833 140.5,160.5C 140.5,160.167 140.5,159.833 140.5,159.5C 141.167,159.167 141.833,158.833 142.5,158.5 Z"/></g>
<g><path style="opacity:1" fill="#fad368" d="M 63.5,162.5 C 65.2785,163.67 66.2785,165.336 66.5,167.5C 63.6872,167.452 61.0205,166.785 58.5,165.5C 57.8165,165.863 57.1499,166.196 56.5,166.5C 55.7777,165.449 54.7777,164.782 53.5,164.5C 53.8333,163.167 54.1667,161.833 54.5,160.5C 57.647,159.698 60.647,160.365 63.5,162.5 Z"/></g>
<g><path style="opacity:0.749" fill="#fadd9f" d="M 54.5,160.5 C 54.1667,161.833 53.8333,163.167 53.5,164.5C 53.1667,165.5 52.5,166.167 51.5,166.5C 52.038,164.883 52.3713,163.216 52.5,161.5C 53.1667,161.167 53.8333,160.833 54.5,160.5 Z"/></g>
<g><path style="opacity:0.855" fill="#fadd8d" d="M 75.5,167.5 C 73.712,167.215 72.0453,167.548 70.5,168.5C 69.4787,170.188 68.1454,171.521 66.5,172.5C 66.5,171.833 66.5,171.167 66.5,170.5C 67.5,170.167 68.1667,169.5 68.5,168.5C 70.6597,166.436 72.993,166.102 75.5,167.5 Z"/></g>
<g><path style="opacity:1" fill="#fadb8a" d="M 193.5,169.5 C 192.33,167.721 190.664,166.721 188.5,166.5C 189.01,169.539 189.677,172.539 190.5,175.5C 189.5,175.5 188.5,175.5 187.5,175.5C 187.5,173.833 187.5,172.167 187.5,170.5C 187.371,168.784 187.038,167.117 186.5,165.5C 191.034,162.32 193.368,163.653 193.5,169.5 Z"/></g>
<g><path style="opacity:0.573" fill="#fbe0a6" d="M 66.5,167.5 C 65.791,168.404 64.791,168.737 63.5,168.5C 62.3052,168.322 61.1385,167.989 60,167.5C 59.5,167.833 59,168.167 58.5,168.5C 59.2427,169.182 59.9094,169.849 60.5,170.5C 59.1667,170.5 57.8333,170.5 56.5,170.5C 56.5,169.167 56.5,167.833 56.5,166.5C 57.1499,166.196 57.8165,165.863 58.5,165.5C 61.0205,166.785 63.6872,167.452 66.5,167.5 Z"/></g>
<g><path style="opacity:1" fill="#f9bc58" d="M 53.5,164.5 C 54.7777,164.782 55.7777,165.449 56.5,166.5C 56.5,167.833 56.5,169.167 56.5,170.5C 57.8333,170.5 59.1667,170.5 60.5,170.5C 60.8417,171.338 61.5084,171.672 62.5,171.5C 62.5,172.833 62.5,174.167 62.5,175.5C 61.5,175.5 60.5,175.5 59.5,175.5C 57.2362,174.781 54.9029,174.448 52.5,174.5C 51.4975,172.989 50.8308,171.322 50.5,169.5C 50.5569,168.391 50.8902,167.391 51.5,166.5C 52.5,166.167 53.1667,165.5 53.5,164.5 Z"/></g>
<g><path style="opacity:0.218" fill="#fbeec8" d="M 63.5,162.5 C 64.5832,162.539 65.5832,162.873 66.5,163.5C 67.1698,165.291 67.8365,166.958 68.5,168.5C 68.1667,169.5 67.5,170.167 66.5,170.5C 65.5,169.833 64.5,169.167 63.5,168.5C 64.791,168.737 65.791,168.404 66.5,167.5C 66.2785,165.336 65.2785,163.67 63.5,162.5 Z"/></g>
<g><path style="opacity:0.075" fill="#fbf4e8" d="M 63.5,168.5 C 64.5,169.167 65.5,169.833 66.5,170.5C 66.5,171.167 66.5,171.833 66.5,172.5C 66.1667,172.5 65.8333,172.5 65.5,172.5C 64.391,172.443 63.391,172.11 62.5,171.5C 61.5084,171.672 60.8417,171.338 60.5,170.5C 59.9094,169.849 59.2427,169.182 58.5,168.5C 59,168.167 59.5,167.833 60,167.5C 61.1385,167.989 62.3052,168.322 63.5,168.5 Z"/></g>
<g><path style="opacity:1" fill="#face65" d="M 183.5,167.5 C 184.795,168.488 186.128,169.488 187.5,170.5C 187.5,172.167 187.5,173.833 187.5,175.5C 187.573,177.027 186.906,178.027 185.5,178.5C 185.631,177.624 185.298,176.957 184.5,176.5C 182.275,178.11 179.941,179.443 177.5,180.5C 178.508,178.661 180.008,177.328 182,176.5C 182.49,175.207 182.657,173.873 182.5,172.5C 179.369,171.908 177.036,172.908 175.5,175.5C 174.5,175.5 173.5,175.5 172.5,175.5C 172.5,174.167 172.5,172.833 172.5,171.5C 175.491,168.611 179.158,167.278 183.5,167.5 Z"/></g>
<g><path style="opacity:1" fill="#f9c75b" d="M 75.5,167.5 C 75.8333,167.5 76.1667,167.5 76.5,167.5C 76.5,170.833 76.5,174.167 76.5,177.5C 75.6851,176.571 74.8518,175.571 74,174.5C 73.79,176.058 73.29,177.391 72.5,178.5C 72.5,177.167 72.5,175.833 72.5,174.5C 71.209,174.263 70.209,174.596 69.5,175.5C 69.6716,176.492 69.3382,177.158 68.5,177.5C 68.5,176.5 68.5,175.5 68.5,174.5C 67.5,174.5 66.5,174.5 65.5,174.5C 65.5,173.833 65.5,173.167 65.5,172.5C 65.8333,172.5 66.1667,172.5 66.5,172.5C 68.1454,171.521 69.4787,170.188 70.5,168.5C 72.0453,167.548 73.712,167.215 75.5,167.5 Z"/></g>
<g><path style="opacity:0.18" fill="#fbf4de" d="M 106.5,174.5 C 104.5,174.5 102.5,174.5 100.5,174.5C 99.8333,175.5 99.1667,176.5 98.5,177.5C 95.0869,172.169 90.0869,169.836 83.5,170.5C 82.8333,171.167 82.1667,171.833 81.5,172.5C 80.4502,172.095 80.4502,171.429 81.5,170.5C 82.3279,169.585 83.3279,168.919 84.5,168.5C 92.1514,170.336 99.4847,172.336 106.5,174.5 Z"/></g>
<g><path style="opacity:1" fill="#facf67" d="M 83.5,170.5 C 90.0869,169.836 95.0869,172.169 98.5,177.5C 98.5997,180.108 97.9331,182.442 96.5,184.5C 95.8333,184.5 95.1667,184.5 94.5,184.5C 91.928,183.072 89.2613,181.738 86.5,180.5C 85.8365,178.958 85.1698,177.291 84.5,175.5C 83.8165,175.863 83.1499,176.196 82.5,176.5C 83.1495,174.565 83.4828,172.565 83.5,170.5 Z"/></g>
<g><path style="opacity:1" fill="#f9c762" d="M 193.5,169.5 C 194.167,170.167 194.833,170.833 195.5,171.5C 195.629,173.216 195.962,174.883 196.5,176.5C 195.288,175.77 194.288,174.77 193.5,173.5C 191.889,174.32 191.222,175.654 191.5,177.5C 190.662,177.158 190.328,176.492 190.5,175.5C 189.677,172.539 189.01,169.539 188.5,166.5C 190.664,166.721 192.33,167.721 193.5,169.5 Z"/></g>
<g><path style="opacity:1" fill="#f9ab50" d="M 50.5,169.5 C 50.8308,171.322 51.4975,172.989 52.5,174.5C 52.1667,176.5 51.8333,178.5 51.5,180.5C 50.1667,180.5 48.8333,180.5 47.5,180.5C 47.4318,176.43 48.4318,172.763 50.5,169.5 Z"/></g>
<g><path style="opacity:0.035" fill="#fbf6e8" d="M 195.5,171.5 C 194.833,170.833 194.167,170.167 193.5,169.5C 193.368,163.653 191.034,162.32 186.5,165.5C 185.778,166.551 184.778,167.218 183.5,167.5C 179.158,167.278 175.491,168.611 172.5,171.5C 171.542,171.953 170.708,172.619 170,173.5C 165.424,170.522 161.257,170.855 157.5,174.5C 156.015,176.249 155.015,178.249 154.5,180.5C 153.856,177.856 152.189,176.189 149.5,175.5C 148.207,174.842 146.707,174.508 145,174.5C 135.337,175.044 125.837,175.711 116.5,176.5C 114.35,178.76 112.183,181.093 110,183.5C 109.617,182.944 109.117,182.611 108.5,182.5C 107.629,179.888 106.963,177.221 106.5,174.5C 108.311,176.385 109.478,178.719 110,181.5C 111.764,177.584 114.597,174.917 118.5,173.5C 130.007,173.895 141.507,174.228 153,174.5C 158.273,171.101 164.106,169.601 170.5,170C 172.167,169 173.833,168 175.5,167C 180.608,166.185 185.441,164.685 190,162.5C 191.107,162.585 192.107,162.919 193,163.5C 194.341,166.022 195.174,168.689 195.5,171.5 Z"/></g>
<g><path style="opacity:0.343" fill="#faebc2" d="M 186.5,165.5 C 187.038,167.117 187.371,168.784 187.5,170.5C 186.128,169.488 184.795,168.488 183.5,167.5C 184.778,167.218 185.778,166.551 186.5,165.5 Z"/></g>
<g><path style="opacity:0.984" fill="#fade95" d="M 172.5,171.5 C 172.5,172.833 172.5,174.167 172.5,175.5C 173.5,175.5 174.5,175.5 175.5,175.5C 175.209,176.649 174.376,177.316 173,177.5C 171.307,176.797 169.807,176.797 168.5,177.5C 168.5,176.167 168.5,174.833 168.5,173.5C 164.766,173.323 161.099,173.656 157.5,174.5C 161.257,170.855 165.424,170.522 170,173.5C 170.708,172.619 171.542,171.953 172.5,171.5 Z"/></g>
<g><path style="opacity:0.682" fill="#fad498" d="M 62.5,171.5 C 63.391,172.11 64.391,172.443 65.5,172.5C 65.5,173.167 65.5,173.833 65.5,174.5C 63.8058,175.527 62.4725,176.861 61.5,178.5C 61.2178,177.222 60.5511,176.222 59.5,175.5C 60.5,175.5 61.5,175.5 62.5,175.5C 62.5,174.167 62.5,172.833 62.5,171.5 Z"/></g>
<g><path style="opacity:0.569" fill="#fae2a7" d="M 83.5,170.5 C 83.4828,172.565 83.1495,174.565 82.5,176.5C 82.1667,176.5 81.8333,176.5 81.5,176.5C 81.5,175.5 81.5,174.5 81.5,173.5C 81.5,173.167 81.5,172.833 81.5,172.5C 82.1667,171.833 82.8333,171.167 83.5,170.5 Z"/></g>
<g><path style="opacity:0.57" fill="#fade9f" d="M 149.5,175.5 C 141.188,176.24 132.854,176.573 124.5,176.5C 124.5,178.167 124.5,179.833 124.5,181.5C 124.5,183.5 124.5,185.5 124.5,187.5C 124.5,190.833 124.5,194.167 124.5,197.5C 128.833,197.5 133.167,197.5 137.5,197.5C 133.03,198.486 128.363,198.819 123.5,198.5C 124.12,192.074 123.453,186.074 121.5,180.5C 121.5,179.167 121.5,177.833 121.5,176.5C 119.833,176.5 118.167,176.5 116.5,176.5C 125.837,175.711 135.337,175.044 145,174.5C 146.707,174.508 148.207,174.842 149.5,175.5 Z"/></g>
<g><path style="opacity:1" fill="#facf63" d="M 168.5,177.5 C 165.612,176.99 163.279,177.656 161.5,179.5C 158.941,176.667 157.608,177.334 157.5,181.5C 156.377,179.312 156.377,176.979 157.5,174.5C 161.099,173.656 164.766,173.323 168.5,173.5C 168.5,174.833 168.5,176.167 168.5,177.5 Z"/></g>
<g><path style="opacity:1" fill="#f9b154" d="M 205.5,168.5 C 208.663,172.071 208.997,175.738 206.5,179.5C 206.631,178.624 206.298,177.957 205.5,177.5C 202.397,179.704 199.063,180.037 195.5,178.5C 194.269,179.651 194.269,180.817 195.5,182C 197.81,182.497 200.143,182.663 202.5,182.5C 200.034,183.634 197.367,183.801 194.5,183C 193.391,181.124 192.391,179.291 191.5,177.5C 191.222,175.654 191.889,174.32 193.5,173.5C 194.288,174.77 195.288,175.77 196.5,176.5C 198.099,178.729 200.099,179.062 202.5,177.5C 202.89,174.203 203.89,171.203 205.5,168.5 Z"/></g>
<g><path style="opacity:0.216" fill="#fbead7" d="M 52.5,161.5 C 52.3713,163.216 52.038,164.883 51.5,166.5C 50.8902,167.391 50.5569,168.391 50.5,169.5C 48.4318,172.763 47.4318,176.43 47.5,180.5C 48.8333,180.5 50.1667,180.5 51.5,180.5C 51.8333,178.5 52.1667,176.5 52.5,174.5C 54.9029,174.448 57.2362,174.781 59.5,175.5C 60.5511,176.222 61.2178,177.222 61.5,178.5C 61.5,178.833 61.5,179.167 61.5,179.5C 60.5,179.833 59.8333,180.5 59.5,181.5C 57.8235,182.183 57.1568,183.517 57.5,185.5C 59.7354,185.795 61.7354,185.461 63.5,184.5C 64.9187,183.549 66.5853,183.216 68.5,183.5C 68.5,184.167 68.5,184.833 68.5,185.5C 67.4168,185.461 66.4168,185.127 65.5,184.5C 63.1318,188.002 60.1318,188.502 56.5,186C 54.9233,182.518 55.9233,179.852 59.5,178C 57.9751,176.991 56.3084,176.491 54.5,176.5C 52.6367,183.75 49.3034,184.417 44.5,178.5C 46.8092,172.525 49.4759,166.858 52.5,161.5 Z"/></g>
<g><path style="opacity:1" fill="#f9b44d" d="M 65.5,174.5 C 66.5,174.5 67.5,174.5 68.5,174.5C 68.5,175.5 68.5,176.5 68.5,177.5C 68.5,177.833 68.5,178.167 68.5,178.5C 69.8333,179.833 71.1667,179.833 72.5,178.5C 73.29,177.391 73.79,176.058 74,174.5C 74.8518,175.571 75.6851,176.571 76.5,177.5C 76.5,179.5 76.5,181.5 76.5,183.5C 71.7619,181.619 66.7619,180.286 61.5,179.5C 61.5,179.167 61.5,178.833 61.5,178.5C 62.4725,176.861 63.8058,175.527 65.5,174.5 Z"/></g>
<g><path style="opacity:0.79" fill="#facd84" d="M 69.5,175.5 C 70.209,174.596 71.209,174.263 72.5,174.5C 72.5,175.833 72.5,177.167 72.5,178.5C 71.1667,179.833 69.8333,179.833 68.5,178.5C 69.5,178.5 70.5,178.5 71.5,178.5C 71.7148,176.821 71.0481,175.821 69.5,175.5 Z"/></g>
<g><path style="opacity:0.292" fill="#fae7c6" d="M 69.5,175.5 C 71.0481,175.821 71.7148,176.821 71.5,178.5C 70.5,178.5 69.5,178.5 68.5,178.5C 68.5,178.167 68.5,177.833 68.5,177.5C 69.3382,177.158 69.6716,176.492 69.5,175.5 Z"/></g>
<g><path style="opacity:0.129" fill="#fbedd3" d="M 86.5,180.5 C 86.5,179.167 86.5,177.833 86.5,176.5C 90.938,175.425 92.938,177.092 92.5,181.5C 90.4352,181.483 88.4352,181.15 86.5,180.5 Z"/></g>
<g><path style="opacity:1" fill="#fad066" d="M 149.5,175.5 C 152.189,176.189 153.856,177.856 154.5,180.5C 154.5,181.833 154.5,183.167 154.5,184.5C 154.672,185.492 154.338,186.158 153.5,186.5C 153.768,183.881 153.435,181.381 152.5,179C 149.194,178.069 148.527,179.069 150.5,182C 150.316,183.376 149.649,184.209 148.5,184.5C 149.686,183.039 149.686,181.705 148.5,180.5C 147.081,179.549 145.415,179.216 143.5,179.5C 143.5,181.167 143.5,182.833 143.5,184.5C 142.15,183.517 141.15,182.184 140.5,180.5C 139.534,182.396 139.201,184.396 139.5,186.5C 139.167,186.5 138.833,186.5 138.5,186.5C 138.5,184.5 138.5,182.5 138.5,180.5C 134.671,179.931 131.337,180.598 128.5,182.5C 127.292,181.766 125.959,181.433 124.5,181.5C 124.5,179.833 124.5,178.167 124.5,176.5C 132.854,176.573 141.188,176.24 149.5,175.5 Z"/></g>
<g><path style="opacity:0.518" fill="#fae3b2" d="M 157.5,174.5 C 156.377,176.979 156.377,179.312 157.5,181.5C 157.5,181.833 157.5,182.167 157.5,182.5C 156.222,182.782 155.222,183.449 154.5,184.5C 154.5,183.167 154.5,181.833 154.5,180.5C 155.015,178.249 156.015,176.249 157.5,174.5 Z"/></g>
<g><path style="opacity:1" fill="#face64" d="M 100.5,174.5 C 102.5,174.5 104.5,174.5 106.5,174.5C 106.963,177.221 107.629,179.888 108.5,182.5C 105.45,179.93 102.45,179.93 99.5,182.5C 99.8333,179.833 100.167,177.167 100.5,174.5 Z"/></g>
<g><path style="opacity:1" fill="#f9b658" d="M 185.5,178.5 C 183.536,180.127 182.203,182.127 181.5,184.5C 184.221,184.037 186.888,183.371 189.5,182.5C 186.749,184.975 183.416,185.975 179.5,185.5C 179.715,183.821 179.048,182.821 177.5,182.5C 177.5,181.833 177.5,181.167 177.5,180.5C 179.941,179.443 182.275,178.11 184.5,176.5C 185.298,176.957 185.631,177.624 185.5,178.5 Z"/></g>
<g><path style="opacity:0.596" fill="#fadea3" d="M 100.5,174.5 C 100.167,177.167 99.8333,179.833 99.5,182.5C 98.8333,182.5 98.5,182.833 98.5,183.5C 97.8333,183.833 97.1667,184.167 96.5,184.5C 97.9331,182.442 98.5997,180.108 98.5,177.5C 99.1667,176.5 99.8333,175.5 100.5,174.5 Z"/></g>
<g><path style="opacity:0.366" fill="#fae2af" d="M 138.5,186.5 C 137.549,185.081 137.216,183.415 137.5,181.5C 134.753,181.187 132.086,181.52 129.5,182.5C 132.295,182.938 134.628,183.938 136.5,185.5C 136.167,185.5 135.833,185.5 135.5,185.5C 132.841,185.083 130.508,184.083 128.5,182.5C 131.337,180.598 134.671,179.931 138.5,180.5C 138.5,182.5 138.5,184.5 138.5,186.5 Z"/></g>
<g><path style="opacity:1" fill="#f9b854" d="M 86.5,180.5 C 89.2613,181.738 91.928,183.072 94.5,184.5C 93.8902,185.391 93.5569,186.391 93.5,187.5C 92.0387,186.314 90.7054,186.314 89.5,187.5C 87.9582,186.699 86.2915,186.366 84.5,186.5C 83.7886,184.799 82.4553,183.799 80.5,183.5C 80.6741,181.139 81.0074,178.806 81.5,176.5C 81.8333,176.5 82.1667,176.5 82.5,176.5C 83.1499,176.196 83.8165,175.863 84.5,175.5C 85.1698,177.291 85.8365,178.958 86.5,180.5 Z"/></g>
<g><path style="opacity:1" fill="#fad173" d="M 116.5,176.5 C 118.167,176.5 119.833,176.5 121.5,176.5C 121.5,177.833 121.5,179.167 121.5,180.5C 121.5,181.833 121.5,183.167 121.5,184.5C 121.167,184.5 120.833,184.5 120.5,184.5C 120.5,182.833 120.5,181.167 120.5,179.5C 118.5,179.5 116.5,179.5 114.5,179.5C 114.148,182.114 112.648,183.781 110,184.5C 108.97,184.164 108.47,183.497 108.5,182.5C 109.117,182.611 109.617,182.944 110,183.5C 112.183,181.093 114.35,178.76 116.5,176.5 Z"/></g>
<g><path style="opacity:0.322" fill="#fae0ac" d="M 148.5,180.5 C 147.167,180.5 145.833,180.5 144.5,180.5C 144.5,181.833 144.5,183.167 144.5,184.5C 145.833,184.5 147.167,184.5 148.5,184.5C 146.833,185.833 145.167,185.833 143.5,184.5C 143.5,182.833 143.5,181.167 143.5,179.5C 145.415,179.216 147.081,179.549 148.5,180.5 Z"/></g>
<g><path style="opacity:0.678" fill="#f9ce85" d="M 163.5,180.5 C 165.527,180.338 167.527,180.505 169.5,181C 170.056,181.383 170.389,181.883 170.5,182.5C 167.99,182.073 165.657,181.407 163.5,180.5 Z"/></g>
<g><path style="opacity:1" fill="#f9b953" d="M 120.5,184.5 C 120.768,186.099 120.434,187.432 119.5,188.5C 118.295,187.314 116.961,187.314 115.5,188.5C 114.833,187.167 114.167,187.167 113.5,188.5C 111.873,190.464 109.873,191.797 107.5,192.5C 107.371,190.784 107.038,189.117 106.5,187.5C 105.817,185.824 104.483,185.157 102.5,185.5C 102.5,188.833 102.5,192.167 102.5,195.5C 101.167,195.5 99.8333,195.5 98.5,195.5C 98.5,193.5 98.5,191.5 98.5,189.5C 98.5,187.5 98.5,185.5 98.5,183.5C 98.5,182.833 98.8333,182.5 99.5,182.5C 102.45,179.93 105.45,179.93 108.5,182.5C 108.47,183.497 108.97,184.164 110,184.5C 112.648,183.781 114.148,182.114 114.5,179.5C 116.5,179.5 118.5,179.5 120.5,179.5C 120.5,181.167 120.5,182.833 120.5,184.5 Z"/></g>
<g><path style="opacity:1" fill="#f9b54f" d="M 161.5,179.5 C 161.842,180.338 162.508,180.672 163.5,180.5C 165.657,181.407 167.99,182.073 170.5,182.5C 173.934,185.214 174.267,188.214 171.5,191.5C 171.66,189.801 171.494,188.134 171,186.5C 170.292,187.381 169.458,188.047 168.5,188.5C 168.737,187.209 168.404,186.209 167.5,185.5C 164.114,184.865 160.78,183.865 157.5,182.5C 157.5,182.167 157.5,181.833 157.5,181.5C 157.608,177.334 158.941,176.667 161.5,179.5 Z"/></g>
<g><path style="opacity:0.09" fill="#fbead5" d="M 181.5,191.5 C 181.833,190.833 182.167,190.167 182.5,189.5C 186.072,189.315 189.072,187.981 191.5,185.5C 191.058,184.261 190.391,183.261 189.5,182.5C 186.888,183.371 184.221,184.037 181.5,184.5C 182.203,182.127 183.536,180.127 185.5,178.5C 186.906,178.027 187.573,177.027 187.5,175.5C 188.5,175.5 189.5,175.5 190.5,175.5C 190.328,176.492 190.662,177.158 191.5,177.5C 192.391,179.291 193.391,181.124 194.5,183C 197.367,183.801 200.034,183.634 202.5,182.5C 204.23,181.974 205.564,180.974 206.5,179.5C 208.997,175.738 208.663,172.071 205.5,168.5C 204.9,165.702 203.9,163.035 202.5,160.5C 201.349,159.269 200.183,159.269 199,160.5C 199.853,166.206 201.02,171.872 202.5,177.5C 200.099,179.062 198.099,178.729 196.5,176.5C 195.962,174.883 195.629,173.216 195.5,171.5C 197.505,172.254 198.172,173.421 197.5,175C 198.656,176.615 199.989,176.615 201.5,175C 199.5,170.667 197.5,166.333 195.5,162C 196.73,159.243 198.896,157.743 202,157.5C 205.707,162.248 208.374,167.581 210,173.5C 210.702,179.814 207.868,183.648 201.5,185C 198.901,185.769 196.401,185.602 194,184.5C 193.781,185.938 193.281,187.271 192.5,188.5C 188.952,189.97 185.285,190.97 181.5,191.5 Z M 188.5,179.5 C 189.756,179.461 190.756,179.961 191.5,181C 190.167,181.667 188.833,181.667 187.5,181C 188.056,180.617 188.389,180.117 188.5,179.5 Z"/></g>
<g><path style="opacity:1" fill="#f8a141" d="M 206.5,179.5 C 205.564,180.974 204.23,181.974 202.5,182.5C 200.143,182.663 197.81,182.497 195.5,182C 194.269,180.817 194.269,179.651 195.5,178.5C 199.063,180.037 202.397,179.704 205.5,177.5C 206.298,177.957 206.631,178.624 206.5,179.5 Z"/></g>
<g><path style="opacity:1" fill="#fac967" d="M 205.5,168.5 C 203.89,171.203 202.89,174.203 202.5,177.5C 201.02,171.872 199.853,166.206 199,160.5C 200.183,159.269 201.349,159.269 202.5,160.5C 203.9,163.035 204.9,165.702 205.5,168.5 Z"/></g>
<g><path style="opacity:1" fill="#f8a848" d="M 61.5,179.5 C 66.7619,180.286 71.7619,181.619 76.5,183.5C 76.9746,186.082 76.3079,188.082 74.5,189.5C 72.955,188.77 72.1216,187.437 72,185.5C 71.1841,184.177 70.0174,183.511 68.5,183.5C 66.5853,183.216 64.9187,183.549 63.5,184.5C 61.712,184.785 60.0453,184.452 58.5,183.5C 58.8627,182.817 59.1961,182.15 59.5,181.5C 59.8333,180.5 60.5,179.833 61.5,179.5 Z"/></g>
<g><path style="opacity:0.773" fill="#fac48e" d="M 59.5,181.5 C 59.1961,182.15 58.8627,182.817 58.5,183.5C 60.0453,184.452 61.712,184.785 63.5,184.5C 61.7354,185.461 59.7354,185.795 57.5,185.5C 57.1568,183.517 57.8235,182.183 59.5,181.5 Z"/></g>
<g><path style="opacity:1" fill="#f9bc52" d="M 153.5,186.5 C 152.596,187.209 152.263,188.209 152.5,189.5C 151.596,188.791 151.263,187.791 151.5,186.5C 147.481,186.646 143.481,186.979 139.5,187.5C 139.5,187.167 139.5,186.833 139.5,186.5C 139.201,184.396 139.534,182.396 140.5,180.5C 141.15,182.184 142.15,183.517 143.5,184.5C 145.167,185.833 146.833,185.833 148.5,184.5C 149.649,184.209 150.316,183.376 150.5,182C 148.527,179.069 149.194,178.069 152.5,179C 153.435,181.381 153.768,183.881 153.5,186.5 Z"/></g>
<g><path style="opacity:0.025" fill="#fbf5ec" d="M 148.5,180.5 C 149.686,181.705 149.686,183.039 148.5,184.5C 147.167,184.5 145.833,184.5 144.5,184.5C 144.5,183.167 144.5,181.833 144.5,180.5C 145.833,180.5 147.167,180.5 148.5,180.5 Z"/></g>
<g><path style="opacity:0.224" fill="#fbdec1" d="M 68.5,183.5 C 70.0174,183.511 71.1841,184.177 72,185.5C 72.1216,187.437 72.955,188.77 74.5,189.5C 75.209,190.404 76.209,190.737 77.5,190.5C 76.791,191.404 75.791,191.737 74.5,191.5C 73.4168,191.461 72.4168,191.127 71.5,190.5C 70.9348,188.456 69.9348,186.79 68.5,185.5C 68.5,184.833 68.5,184.167 68.5,183.5 Z"/></g>
<g><path style="opacity:0.682" fill="#facc8b" d="M 76.5,167.5 C 77.492,174.982 77.8254,182.648 77.5,190.5C 76.209,190.737 75.209,190.404 74.5,189.5C 76.3079,188.082 76.9746,186.082 76.5,183.5C 76.5,181.5 76.5,179.5 76.5,177.5C 76.5,174.167 76.5,170.833 76.5,167.5 Z"/></g>
<g><path style="opacity:1" fill="#f9bd53" d="M 124.5,181.5 C 125.959,181.433 127.292,181.766 128.5,182.5C 130.508,184.083 132.841,185.083 135.5,185.5C 133.721,187.344 131.388,188.01 128.5,187.5C 127.167,187.5 125.833,187.5 124.5,187.5C 124.5,185.5 124.5,183.5 124.5,181.5 Z"/></g>
<g><path style="opacity:0.82" fill="#f9c07e" d="M 177.5,180.5 C 177.5,181.167 177.5,181.833 177.5,182.5C 176.735,185.096 176.401,187.763 176.5,190.5C 178.565,190.483 180.565,190.15 182.5,189.5C 182.167,190.167 181.833,190.833 181.5,191.5C 179.5,191.5 177.5,191.5 175.5,191.5C 175.335,188.482 175.502,185.482 176,182.5C 176.278,181.584 176.778,180.918 177.5,180.5 Z"/></g>
<g><path style="opacity:1" fill="#f8a244" d="M 177.5,182.5 C 179.048,182.821 179.715,183.821 179.5,185.5C 183.416,185.975 186.749,184.975 189.5,182.5C 190.391,183.261 191.058,184.261 191.5,185.5C 189.072,187.981 186.072,189.315 182.5,189.5C 180.565,190.15 178.565,190.483 176.5,190.5C 176.401,187.763 176.735,185.096 177.5,182.5 Z"/></g>
<g><path style="opacity:1" fill="#f9ac4a" d="M 152.5,189.5 C 154.033,191.355 155.7,193.188 157.5,195C 156.906,195.464 156.239,195.631 155.5,195.5C 153.142,195.747 151.142,195.081 149.5,193.5C 149.167,192.833 148.833,192.167 148.5,191.5C 147.365,189.787 145.698,189.12 143.5,189.5C 143.5,191.833 143.5,194.167 143.5,196.5C 142.167,196.5 140.833,196.5 139.5,196.5C 139.5,193.5 139.5,190.5 139.5,187.5C 143.481,186.979 147.481,186.646 151.5,186.5C 151.263,187.791 151.596,188.791 152.5,189.5 Z"/></g>
<g><path style="opacity:0.959" fill="#f9c478" d="M 135.5,185.5 C 135.833,185.5 136.167,185.5 136.5,185.5C 136.5,186.833 136.5,188.167 136.5,189.5C 134.167,189.5 131.833,189.5 129.5,189.5C 129.5,190.5 129.5,191.5 129.5,192.5C 132.167,192.5 134.833,192.5 137.5,192.5C 137.5,192.833 137.5,193.167 137.5,193.5C 134.5,193.5 131.5,193.5 128.5,193.5C 128.5,191.5 128.5,189.5 128.5,187.5C 131.388,188.01 133.721,187.344 135.5,185.5 Z"/></g>
<g><path style="opacity:0.165" fill="#faefdf" d="M 138.5,186.5 C 138.795,188.735 138.461,190.735 137.5,192.5C 134.833,192.5 132.167,192.5 129.5,192.5C 129.5,191.5 129.5,190.5 129.5,189.5C 131.833,189.5 134.167,189.5 136.5,189.5C 136.5,188.167 136.5,186.833 136.5,185.5C 134.628,183.938 132.295,182.938 129.5,182.5C 132.086,181.52 134.753,181.187 137.5,181.5C 137.216,183.415 137.549,185.081 138.5,186.5 Z"/></g>
<g><path style="opacity:0.788" fill="#fac78b" d="M 148.5,191.5 C 147.504,191.586 146.671,191.252 146,190.5C 145.503,192.81 145.337,195.143 145.5,197.5C 143.265,197.795 141.265,197.461 139.5,196.5C 140.833,196.5 142.167,196.5 143.5,196.5C 143.5,194.167 143.5,191.833 143.5,189.5C 145.698,189.12 147.365,189.787 148.5,191.5 Z"/></g>
<g><path style="opacity:0.094" fill="#fbeede" d="M 177.5,180.5 C 176.778,180.918 176.278,181.584 176,182.5C 175.502,185.482 175.335,188.482 175.5,191.5C 177.5,191.5 179.5,191.5 181.5,191.5C 179.413,193.301 177.079,193.635 174.5,192.5C 169.711,196.629 164.544,197.295 159,194.5C 158.517,195.448 158.351,196.448 158.5,197.5C 156.533,197.261 154.699,197.594 153,198.5C 151.271,198.026 150.105,197.026 149.5,195.5C 151.611,196.742 153.611,196.742 155.5,195.5C 156.239,195.631 156.906,195.464 157.5,195C 155.7,193.188 154.033,191.355 152.5,189.5C 152.263,188.209 152.596,187.209 153.5,186.5C 154.338,186.158 154.672,185.492 154.5,184.5C 155.222,183.449 156.222,182.782 157.5,182.5C 158.687,184.975 160.687,185.975 163.5,185.5C 164.609,186.29 165.942,186.79 167.5,187C 164.854,187.497 162.187,187.664 159.5,187.5C 158.713,185.896 157.38,185.229 155.5,185.5C 155.34,187.199 155.506,188.866 156,190.5C 156.417,189.244 157.25,188.577 158.5,188.5C 158.5,188.833 158.5,189.167 158.5,189.5C 158.263,190.791 158.596,191.791 159.5,192.5C 159.611,193.117 159.944,193.617 160.5,194C 163.696,194.805 166.696,194.638 169.5,193.5C 170.167,192.833 170.833,192.167 171.5,191.5C 174.267,188.214 173.934,185.214 170.5,182.5C 170.389,181.883 170.056,181.383 169.5,181C 167.527,180.505 165.527,180.338 163.5,180.5C 162.508,180.672 161.842,180.338 161.5,179.5C 163.279,177.656 165.612,176.99 168.5,177.5C 169.807,176.797 171.307,176.797 173,177.5C 174.376,177.316 175.209,176.649 175.5,175.5C 177.036,172.908 179.369,171.908 182.5,172.5C 182.657,173.873 182.49,175.207 182,176.5C 180.008,177.328 178.508,178.661 177.5,180.5 Z M 159.5,187.5 C 158.833,187.5 158.5,187.833 158.5,188.5C 157.25,188.577 156.417,189.244 156,190.5C 155.506,188.866 155.34,187.199 155.5,185.5C 157.38,185.229 158.713,185.896 159.5,187.5 Z M 172.5,178.5 C 177.208,178.008 177.708,179.341 174,182.5C 171.628,181.683 171.128,180.35 172.5,178.5 Z"/></g>
<g><path style="opacity:1" fill="#f8a345" d="M 171.5,191.5 C 170.833,192.167 170.167,192.833 169.5,193.5C 166.098,193.658 162.764,193.324 159.5,192.5C 158.596,191.791 158.263,190.791 158.5,189.5C 161.812,189.415 165.145,189.082 168.5,188.5C 169.458,188.047 170.292,187.381 171,186.5C 171.494,188.134 171.66,189.801 171.5,191.5 Z"/></g>
<g><path style="opacity:0.114" fill="#fbe2c4" d="M 163.5,185.5 C 164.833,185.5 166.167,185.5 167.5,185.5C 168.404,186.209 168.737,187.209 168.5,188.5C 165.145,189.082 161.812,189.415 158.5,189.5C 158.5,189.167 158.5,188.833 158.5,188.5C 158.5,187.833 158.833,187.5 159.5,187.5C 162.187,187.664 164.854,187.497 167.5,187C 165.942,186.79 164.609,186.29 163.5,185.5 Z"/></g>
<g><path style="opacity:0.682" fill="#f9d191" d="M 157.5,182.5 C 160.78,183.865 164.114,184.865 167.5,185.5C 166.167,185.5 164.833,185.5 163.5,185.5C 160.687,185.975 158.687,184.975 157.5,182.5 Z"/></g>
<g><path style="opacity:0.359" fill="#fad9b2" d="M 138.5,186.5 C 138.833,186.5 139.167,186.5 139.5,186.5C 139.5,186.833 139.5,187.167 139.5,187.5C 139.5,190.5 139.5,193.5 139.5,196.5C 138.833,196.5 138.167,196.5 137.5,196.5C 137.5,195.5 137.5,194.5 137.5,193.5C 137.5,193.167 137.5,192.833 137.5,192.5C 138.461,190.735 138.795,188.735 138.5,186.5 Z"/></g>
<g><path style="opacity:0.749" fill="#f9bc80" d="M 159.5,192.5 C 162.764,193.324 166.098,193.658 169.5,193.5C 166.696,194.638 163.696,194.805 160.5,194C 159.944,193.617 159.611,193.117 159.5,192.5 Z"/></g>
<g><path style="opacity:1" fill="#f8a647" d="M 124.5,187.5 C 125.833,187.5 127.167,187.5 128.5,187.5C 128.5,189.5 128.5,191.5 128.5,193.5C 131.5,193.5 134.5,193.5 137.5,193.5C 137.5,194.5 137.5,195.5 137.5,196.5C 137.5,196.833 137.5,197.167 137.5,197.5C 133.167,197.5 128.833,197.5 124.5,197.5C 124.5,194.167 124.5,190.833 124.5,187.5 Z"/></g>
<g><path style="opacity:0.7" fill="#f9c692" d="M 149.5,193.5 C 151.142,195.081 153.142,195.747 155.5,195.5C 153.611,196.742 151.611,196.742 149.5,195.5C 149.5,194.833 149.5,194.167 149.5,193.5 Z"/></g>
<g><path style="opacity:0.123" fill="#fbefe1" d="M 81.5,173.5 C 81.5,174.5 81.5,175.5 81.5,176.5C 81.0074,178.806 80.6741,181.139 80.5,183.5C 80.5,184.167 80.5,184.833 80.5,185.5C 78.5589,187.011 78.0589,189.011 79,191.5C 81.3388,193.078 83.1722,192.745 84.5,190.5C 84.5,189.167 84.5,187.833 84.5,186.5C 86.2915,186.366 87.9582,186.699 89.5,187.5C 89.5,189.167 89.5,190.833 89.5,192.5C 89.9731,193.906 90.9731,194.573 92.5,194.5C 94.2646,195.461 96.2646,195.795 98.5,195.5C 99.8333,195.5 101.167,195.5 102.5,195.5C 103.317,193.031 103.817,190.365 104,187.5C 104.77,186.402 105.603,186.402 106.5,187.5C 107.038,189.117 107.371,190.784 107.5,192.5C 109.873,191.797 111.873,190.464 113.5,188.5C 114.477,191.287 114.81,194.287 114.5,197.5C 116.5,197.5 118.5,197.5 120.5,197.5C 121.08,193.19 121.414,188.857 121.5,184.5C 121.5,183.167 121.5,181.833 121.5,180.5C 123.453,186.074 124.12,192.074 123.5,198.5C 128.363,198.819 133.03,198.486 137.5,197.5C 137.5,197.167 137.5,196.833 137.5,196.5C 138.167,196.5 138.833,196.5 139.5,196.5C 141.265,197.461 143.265,197.795 145.5,197.5C 145.337,195.143 145.503,192.81 146,190.5C 146.671,191.252 147.504,191.586 148.5,191.5C 148.833,192.167 149.167,192.833 149.5,193.5C 149.5,194.167 149.5,194.833 149.5,195.5C 148.542,195.047 147.708,194.381 147,193.5C 146.879,195.727 146.046,197.56 144.5,199C 140.833,199.167 137.167,199.333 133.5,199.5C 129.405,199.458 125.571,198.792 122,197.5C 115.934,201.324 112.934,199.657 113,192.5C 110.667,195.167 108.333,195.167 106,192.5C 104.98,193.891 104.147,195.391 103.5,197C 98.6874,197.42 94.0207,196.754 89.5,195C 88.3305,192.815 87.1638,190.649 86,188.5C 85.964,190.941 85.1307,192.941 83.5,194.5C 80.3381,193.635 77.3381,192.635 74.5,191.5C 75.791,191.737 76.791,191.404 77.5,190.5C 77.8254,182.648 77.492,174.982 76.5,167.5C 76.1667,167.5 75.8333,167.5 75.5,167.5C 72.993,166.102 70.6597,166.436 68.5,168.5C 67.8365,166.958 67.1698,165.291 66.5,163.5C 65.5832,162.873 64.5832,162.539 63.5,162.5C 60.647,160.365 57.647,159.698 54.5,160.5C 53.8333,160.833 53.1667,161.167 52.5,161.5C 52.8184,159.182 54.1517,157.848 56.5,157.5C 63.3191,160.914 70.3191,163.747 77.5,166C 78.3029,170.414 78.8029,174.914 79,179.5C 79.5662,177.277 80.3995,175.277 81.5,173.5 Z M 96.5,185.5 C 97.7125,186.497 97.5458,187.497 96,188.5C 95.5304,187.423 95.6971,186.423 96.5,185.5 Z"/></g>
<g><path style="opacity:0.667" fill="#facd98" d="M 120.5,184.5 C 120.833,184.5 121.167,184.5 121.5,184.5C 121.414,188.857 121.08,193.19 120.5,197.5C 118.5,197.5 116.5,197.5 114.5,197.5C 114.81,194.287 114.477,191.287 113.5,188.5C 114.167,187.167 114.833,187.167 115.5,188.5C 115.5,191.167 115.5,193.833 115.5,196.5C 116.833,196.5 118.167,196.5 119.5,196.5C 119.5,193.833 119.5,191.167 119.5,188.5C 120.434,187.432 120.768,186.099 120.5,184.5 Z"/></g>
<g><path style="opacity:0.345" fill="#fad8b4" d="M 98.5,189.5 C 98.5,191.5 98.5,193.5 98.5,195.5C 96.2646,195.795 94.2646,195.461 92.5,194.5C 93.791,194.737 94.791,194.404 95.5,193.5C 96.8571,192.41 97.8571,191.076 98.5,189.5 Z"/></g>
<g><path style="opacity:0.737" fill="#f9bb7b" d="M 94.5,189.5 C 95.4345,190.568 95.7678,191.901 95.5,193.5C 94.791,194.404 93.791,194.737 92.5,194.5C 90.9731,194.573 89.9731,193.906 89.5,192.5C 91.1172,193.038 92.7839,193.371 94.5,193.5C 94.5,192.167 94.5,190.833 94.5,189.5 Z"/></g>
<g><path style="opacity:1" fill="#f8aa46" d="M 119.5,188.5 C 119.5,191.167 119.5,193.833 119.5,196.5C 118.167,196.5 116.833,196.5 115.5,196.5C 115.5,193.833 115.5,191.167 115.5,188.5C 116.961,187.314 118.295,187.314 119.5,188.5 Z"/></g>
<g><path style="opacity:1" fill="#f8a545" d="M 93.5,187.5 C 93.3284,188.492 93.6618,189.158 94.5,189.5C 94.5,190.833 94.5,192.167 94.5,193.5C 92.7839,193.371 91.1172,193.038 89.5,192.5C 89.5,190.833 89.5,189.167 89.5,187.5C 90.7054,186.314 92.0387,186.314 93.5,187.5 Z"/></g>
<g><path style="opacity:0.871" fill="#fabe80" d="M 80.5,185.5 C 79.962,187.117 79.6287,188.784 79.5,190.5C 81.1667,190.5 82.8333,190.5 84.5,190.5C 83.1722,192.745 81.3388,193.078 79,191.5C 78.0589,189.011 78.5589,187.011 80.5,185.5 Z"/></g>
<g><path style="opacity:0.847" fill="#f9c47c" d="M 106.5,187.5 C 105.603,186.402 104.77,186.402 104,187.5C 103.817,190.365 103.317,193.031 102.5,195.5C 102.5,192.167 102.5,188.833 102.5,185.5C 104.483,185.157 105.817,185.824 106.5,187.5 Z"/></g>
<g><path style="opacity:0.039" fill="#fbecd9" d="M 98.5,183.5 C 98.5,185.5 98.5,187.5 98.5,189.5C 97.8571,191.076 96.8571,192.41 95.5,193.5C 95.7678,191.901 95.4345,190.568 94.5,189.5C 93.6618,189.158 93.3284,188.492 93.5,187.5C 93.5569,186.391 93.8902,185.391 94.5,184.5C 95.1667,184.5 95.8333,184.5 96.5,184.5C 97.1667,184.167 97.8333,183.833 98.5,183.5 Z M 96.5,185.5 C 95.6971,186.423 95.5304,187.423 96,188.5C 97.5458,187.497 97.7125,186.497 96.5,185.5 Z"/></g>
<g><path style="opacity:1" fill="#f8a849" d="M 80.5,183.5 C 82.4553,183.799 83.7886,184.799 84.5,186.5C 84.5,187.833 84.5,189.167 84.5,190.5C 82.8333,190.5 81.1667,190.5 79.5,190.5C 79.6287,188.784 79.962,187.117 80.5,185.5C 80.5,184.833 80.5,184.167 80.5,183.5 Z"/></g>
</svg>
